<?xml version="1.0" encoding="UTF-8"?>
<svg id="Layer_1" xmlns="http://www.w3.org/2000/svg" version="1.1" viewBox="0 0 24 24">
  <!-- Generator: Adobe Illustrator 30.3.0, SVG Export Plug-In . SVG Version: 2.1.3 Build 182)  -->
  <defs>
    <style>
      .st0 {
        fill: none;
        stroke: #2A9D8F;
        stroke-linecap: round;
        stroke-linejoin: round;
        stroke-width: 2px;
      }
    </style>
  </defs>
  <path class="st0" d="M3,10c0-.6.3-1.1.7-1.5l7-6c.7-.6,1.8-.6,2.6,0l7,6c.4.4.7.9.7,1.5v9c0,1.1-.9,2-2,2H5c-1.1,0-2-.9-2-2v-9Z"/>
  <path class="st0" d="M14.1,17.5l-1.1-4.9,2.1-2.1c.9-.9,1.2-2.1.9-2.7-.6-.3-1.8,0-2.7.9l-2.1,2.1-4.9-1.1c-.3,0-.5,0-.7.3l-.2.3c-.1.3,0,.6.2.8l3.2,2.1-1.2,1.8h-1.8l-.6.6,1.8,1.2,1.2,1.8.6-.6v-1.8l1.8-1.2,2.1,3.2c.2.2.5.3.8.2h.3c.2-.3.4-.5.3-.8Z"/>
</svg>